<svg xmlns="http://www.w3.org/2000/svg" width="398.56024169921875" height="379.8193054199219" viewBox="-79.21288299560547 -122.2177963256836 398.56024169921875 379.8193054199219"><title>Neo4j Graph Visualization</title><desc>Created using Neo4j (http://www.neo4j.com/)</desc><g class="layer relationships"><g class="relationship" transform="translate(50.41117322826416 85.92065331051634) rotate(369.71634493857175)"><path class="outline" fill="#FFD86E" stroke="none" d="M 31.26317983184346,8.894581878976458 L 31.52199887694598,7.92865605268739 A 115.32364045741132 115.32364045741132 0 0 0 35.348270577399006,8.884090809133966 L 35.12263008688666,9.858301448082926 A 116.32364045741132 116.32364045741132 0 0 1 31.26317983184346,8.894581878976458 Z M 87.85764249992286,9.80236071676974 L 87.62993565531339,8.828630983775 A 115.32364045741132 115.32364045741132 0 0 0 91.45417171712067,7.865080651365624 L 90.67156847411037,4.968957006900531 L 98.34222742804093,6.521693691752454 L 92.49764270780106,11.726578843985749 L 91.71503946479076,8.830455199520655 A 116.32364045741132 116.32364045741132 0 0 1 87.85764249992286,9.80236071676974"/><text text-anchor="middle" pointer-events="none" font-size="8px" fill="#000000" x="61.492817774958496" y="15.358148644016211" font-family="sans-serif">INSTAGRAM</text></g><g class="relationship" transform="translate(282.84734888111507 69.40797796678713) rotate(521.5907665275674)"><path class="outline" fill="#FFD86E" stroke="none" d="M 31.26317983184346,8.894581878976458 L 31.52199887694598,7.92865605268739 A 106.19736089403914 106.19736089403914 0 0 0 33.03111502648532,8.321170642685487 L 32.78650646775303,9.290792555079648 A 107.19736089403914 107.19736089403914 0 0 1 31.26317983184346,8.894581878976458 Z M 85.45864913934973,9.23266242501812 L 85.21190098713032,8.263582784649856 A 106.19736089403914 106.19736089403914 0 0 0 86.72014708618529,7.867738167600337 L 85.93729574872447,4.971681575709255 L 93.60808769017461,6.523761145506914 L 87.76394886946639,11.729146956788448 L 86.98109753200556,8.833090364897364 A 107.19736089403914 107.19736089403914 0 0 1 85.45864913934973,9.23266242501812"/><text text-anchor="middle" pointer-events="none" font-size="8px" fill="#000000" x="59.12565188816869" y="15.047178397797921" transform="rotate(180 59.12565188816869 12.047178397797921)" font-family="sans-serif">INSTAGRAM</text></g><g class="relationship" transform="translate(238.84150991756087 205.4421373175141) rotate(235.589777729733)"><path class="outline" fill="#6DCE9E" stroke="none" d="M 31.26317983184346,8.894581878976458 L 31.52199887694598,7.92865605268739 A 110.19815278102213 110.19815278102213 0 0 0 35.692336590583494,8.959409187435426 L 35.471361534771106,9.934688647235902 A 111.19815278102213 111.19815278102213 0 0 1 31.26317983184346,8.894581878976458 Z M 84.8505498154486,9.881140596675337 L 84.62746004603034,8.90634269209157 A 110.19815278102213 110.19815278102213 0 0 0 88.79555240390091,7.866547151208257 L 88.0128122546379,4.970460505623963 L 95.68354460180811,6.522834577191906 L 89.83920593625162,11.727996011987317 L 89.0564657869886,8.831909366403023 A 111.19815278102213 111.19815278102213 0 0 1 84.8505498154486,9.881140596675337"/><text text-anchor="middle" pointer-events="none" font-size="8px" fill="#000000" x="60.16342338003341" y="15.1835019638971" transform="rotate(180 60.16342338003341 12.1835019638971)" font-family="sans-serif">5 years time</text></g><g class="relationship" transform="translate(238.84150991756087 205.4421373175141) rotate(235.589777729733)"><path class="outline" fill="#FFD86E" stroke="none" d="M 31.26317983184346,-8.894581878976458 L 31.52199887694598,-7.92865605268739 A 110.19815278102213 110.19815278102213 0 0 1 34.04554228761192,-8.572973465245013 L 33.809623294343126,-9.544746190019197 A 111.19815278102213 111.19815278102213 0 0 0 31.26317983184346,-8.894581878976458 Z M 86.51143842145606,-9.487594998204969 L 86.27341235530561,-8.516336231535178 A 110.19815278102213 110.19815278102213 0 0 1 88.79555240390091,-7.866547151208257 L 88.0128122546379,-4.970460505623963 L 95.68354460180811,-6.522834577191906 L 89.83920593625162,-11.727996011987317 L 89.0564657869886,-8.831909366403023 A 111.19815278102213 111.19815278102213 0 0 0 86.51143842145606,-9.487594998204969"/><text text-anchor="middle" pointer-events="none" font-size="8px" fill="#000000" x="60.16342338003339" y="-9.1835019638971" transform="rotate(180 60.16342338003339 -12.1835019638971)" font-family="sans-serif">INSTAGRAM</text></g><g class="relationship" transform="translate(116.0849676567035 221.10149082792418) rotate(295.67390591958304)"><path class="outline" fill="#6DCE9E" stroke="none" d="M 31.26317983184346,8.894581878976458 L 31.52199887694598,7.92865605268739 A 124.14791611783411 124.14791611783411 0 0 0 31.704709410677093,7.977464068008302 L 31.447362082051534,8.943783038353658 A 125.14791611783411 125.14791611783411 0 0 1 31.26317983184346,8.894581878976458 Z M 96.10754825283828,8.877672707258228 L 95.84822548277913,7.911881994459193 A 124.14791611783411 124.14791611783411 0 0 0 96.03083582933745,7.862700465144889 L 95.2484547907244,4.966516784778818 L 102.91899458996046,6.519841988442108 L 97.0740105474882,11.724278705632983 L 96.29162950887515,8.828095025266913 A 125.14791611783411 125.14791611783411 0 0 1 96.10754825283828,8.877672707258228"/><text text-anchor="middle" pointer-events="none" font-size="8px" fill="#000000" x="63.78128732742137" y="15.658828561582197" font-family="sans-serif">Dont Stop Beli…</text></g><g class="relationship" transform="translate(116.0849676567035 221.10149082792418) rotate(295.67390591958304)"><path class="outline" fill="#FFD86E" stroke="none" d="M 31.26317983184346,-8.894581878976458 L 31.52199887694598,-7.92865605268739 A 124.14791611783411 124.14791611783411 0 0 1 37.597822994795514,-9.393797000388503 L 37.38794415189568,-10.371524401714169 A 125.14791611783411 125.14791611783411 0 0 0 31.26317983184346,-8.894581878976458 Z M 90.16989812311147,-10.317558697939631 L 89.95802041097991,-9.340262511974544 A 124.14791611783411 124.14791611783411 0 0 1 96.03083582933745,-7.862700465144889 L 95.2484547907244,-4.966516784778818 L 102.91899458996046,-6.519841988442108 L 97.0740105474882,-11.724278705632983 L 96.29162950887515,-8.828095025266913 A 125.14791611783411 125.14791611783411 0 0 0 90.16989812311147,-10.317558697939631"/><text text-anchor="middle" pointer-events="none" font-size="8px" fill="#000000" x="63.781287327421325" y="-9.658828561582197" font-family="sans-serif">INSTAGRAM</text></g><g class="relationship" transform="translate(59.085535727052616 169.95866667451662) rotate(330.5095445890024)"><path class="outline" fill="#6DCE9E" stroke="none" d="M 31.26317983184346,8.894581878976458 L 31.52199887694598,7.92865605268739 A 127.36607483311906 127.36607483311906 0 0 0 34.2365494154088,8.624104012959691 L 33.999043349779186,9.595490068443894 A 128.36607483311906 128.36607483311906 0 0 1 31.26317983184346,8.894581878976458 Z M 95.22608411242211,9.533704663371793 L 94.98661804314582,8.562799929803475 A 127.36607483311906 127.36607483311906 0 0 0 97.69975947417493,7.861874779342604 L 96.9174555182593,4.96567027679815 L 104.5879539727646,6.519199632630221 L 98.74283141539577,11.723480782735209 L 97.96052745948015,8.827276280190755 A 128.36607483311906 128.36607483311906 0 0 1 95.22608411242211,9.533704663371793"/><text text-anchor="middle" pointer-events="none" font-size="8px" fill="#000000" x="64.61579683651799" y="15.768484707042134" font-family="sans-serif">Blowin in the …</text></g><g class="relationship" transform="translate(59.085535727052616 169.95866667451662) rotate(330.5095445890024)"><path class="outline" fill="#FFD86E" stroke="none" d="M 31.26317983184346,-8.894581878976458 L 31.52199887694598,-7.92865605268739 A 127.36607483311906 127.36607483311906 0 0 1 38.419970009439396,-9.572596622100292 L 38.215309586572275,-10.551429657562338 A 128.36607483311906 128.36607483311906 0 0 0 31.26317983184346,-8.894581878976458 Z M 91.01175577538648,-10.498151730464954 L 90.80512025220669,-9.519733741791285 A 127.36607483311906 127.36607483311906 0 0 1 97.69975947417493,-7.861874779342604 L 96.9174555182593,-4.96567027679815 L 104.5879539727646,-6.519199632630221 L 98.74283141539577,-11.723480782735209 L 97.96052745948015,-8.827276280190755 A 128.36607483311906 128.36607483311906 0 0 0 91.01175577538648,-10.498151730464954"/><text text-anchor="middle" pointer-events="none" font-size="8px" fill="#000000" x="64.61579683651794" y="-9.768484707042134" font-family="sans-serif">INSTAGRAM</text></g><g class="relationship" transform="translate(50.41117322826416 85.92065331051634) rotate(369.71634493857175)"><path class="outline" fill="#6DCE9E" stroke="none" d="M 31.26317983184346,-8.894581878976458 L 31.52199887694598,-7.92865605268739 A 115.32364045741132 115.32364045741132 0 0 1 33.11424005103191,-8.34314508516087 L 32.86922772559043,-9.31266504905112 A 116.32364045741132 116.32364045741132 0 0 0 31.26317983184346,-8.894581878976458 Z M 90.10988218074658,-9.251944781347646 L 89.86281349642881,-8.282946811675117 A 115.32364045741132 115.32364045741132 0 0 1 91.45417171712067,-7.865080651365624 L 90.67156847411037,-4.968957006900531 L 98.34222742804093,-6.521693691752454 L 92.49764270780106,-11.726578843985749 L 91.71503946479076,-8.830455199520655 A 116.32364045741132 116.32364045741132 0 0 0 90.10988218074658,-9.251944781347646"/><text text-anchor="middle" pointer-events="none" font-size="8px" fill="#000000" x="61.49281777495847" y="-9.358148644016211" font-family="sans-serif">Lets have a …</text></g><g class="relationship" transform="translate(156.5102446543049 -14.199506508199025) rotate(443.0984253137998)"><path class="outline" fill="#6DCE9E" stroke="none" d="M 31.26317983184346,8.894581878976458 L 31.52199887694598,7.92865605268739 A 113.77310805508378 113.77310805508378 0 0 0 43.56226898622373,10.465978239138977 L 43.409276971032774,11.45420566402042 A 114.77310805508378 114.77310805508378 0 0 1 31.26317983184346,8.894581878976458 Z M 78.77020548302366,11.416446209176982 L 78.61510330166276,10.428547776473962 A 113.77310805508378 113.77310805508378 0 0 0 90.64992710234132,7.865517486202749 L 89.867283078258,4.969404862086302 L 97.53796389596026,6.5220335340277265 L 91.69345246778576,11.727000985024679 L 90.91080844370244,8.830888360908231 A 114.77310805508378 114.77310805508378 0 0 1 78.77020548302366,11.416446209176982"/><text text-anchor="middle" pointer-events="none" font-size="8px" fill="#000000" x="61.090670227902685" y="15.305315549684423" font-family="sans-serif">Odissea</text></g><g class="relationship" transform="translate(156.5102446543049 -14.199506508199025) rotate(443.0984253137998)"><path class="outline" fill="#FFD86E" stroke="none" d="M 31.26317983184346,-8.894581878976458 L 31.52199887694598,-7.92865605268739 A 113.77310805508378 113.77310805508378 0 0 1 34.95383828570891,-8.791244709993592 L 34.72518312966093,-9.764752193073548 A 114.77310805508378 114.77310805508378 0 0 0 31.26317983184346,-8.894581878976458 Z M 87.45067142659349,-9.708450343031032 L 87.21993771367727,-8.735433409096217 A 113.77310805508378 113.77310805508378 0 0 1 90.64992710234132,-7.865517486202749 L 89.867283078258,-4.969404862086302 L 97.53796389596026,-6.5220335340277265 L 91.69345246778576,-11.727000985024679 L 90.91080844370244,-8.830888360908231 A 114.77310805508378 114.77310805508378 0 0 0 87.45067142659349,-9.708450343031032"/><text text-anchor="middle" pointer-events="none" font-size="8px" fill="#000000" x="61.0906702279027" y="-9.305315549684423" font-family="sans-serif">INSTAGRAM</text></g><g class="relationship" transform="translate(282.84734888111507 69.40797796678713) rotate(521.5907665275674)"><path class="outline" fill="#6DCE9E" stroke="none" d="M 31.26317983184346,-8.894581878976458 L 31.52199887694598,-7.92865605268739 A 106.19736089403914 106.19736089403914 0 0 1 46.651465591332425,-10.825936771974966 L 46.53511210834008,-11.819144638937132 A 107.19736089403914 107.19736089403914 0 0 0 31.26317983184346,-8.894581878976458 Z M 71.71565767246429,-11.791354837451593 L 71.59711222367217,-10.798406210094328 A 106.19736089403914 106.19736089403914 0 0 1 86.72014708618529,-7.867738167600337 L 85.93729574872447,-4.971681575709255 L 93.60808769017461,-6.523761145506914 L 87.76394886946639,-11.729146956788448 L 86.98109753200556,-8.833090364897364 A 107.19736089403914 107.19736089403914 0 0 0 71.71565767246429,-11.791354837451593"/><text text-anchor="middle" pointer-events="none" font-size="8px" fill="#000000" x="59.125651888168655" y="-9.047178397797921" transform="rotate(180 59.125651888168655 -12.047178397797921)" font-family="sans-serif">Junts</text></g><g class="relationship" transform="translate(156.5102446543049 -14.199506508199025) rotate(221.96945186142744)"><path class="outline" fill="#FFD86E" stroke="none" d="M 31.26317983184346,-8.894581878976458 L 31.52199887694598,-7.92865605268739 A 107.00506814872362 107.00506814872362 0 0 1 33.23572454048208,-8.372686612964245 L 32.99292086449418,-9.342762061023194 A 108.00506814872362 108.00506814872362 0 0 0 31.26317983184346,-8.894581878976458 Z M 85.67134844510012,-9.284832030827047 L 85.42641179108733,-8.315292946766462 A 107.00506814872362 107.00506814872362 0 0 1 87.13915671746389,-7.867494325181467 L 86.35632814408287,-4.971431579884291 L 94.02710788538748,-6.5235714448419255 L 88.1829281486386,-11.728911318911036 L 87.40009957525757,-8.832848573613859 A 108.00506814872362 108.00506814872362 0 0 0 85.67134844510012,-9.284832030827047"/><text text-anchor="middle" pointer-events="none" font-size="8px" fill="#000000" x="59.33517079725402" y="-9.074700328681502" transform="rotate(180 59.33517079725402 -12.074700328681502)" font-family="sans-serif">INSTAGRAM</text></g><g class="relationship" transform="translate(156.5102446543049 -14.199506508199025) rotate(221.96945186142744)"><path class="outline" fill="#6DCE9E" stroke="none" d="M 31.26317983184346,8.894581878976458 L 31.52199887694598,7.92865605268739 A 107.00506814872362 107.00506814872362 0 0 0 31.87264403267811,8.021974230937246 L 31.61710188989245,8.988772148425966 A 108.00506814872362 108.00506814872362 0 0 1 31.26317983184346,8.894581878976458 Z M 87.04638553348576,8.927817024617212 L 86.78871765202268,7.961583479938525 A 107.00506814872362 107.00506814872362 0 0 0 87.13915671746389,7.867494325181467 L 86.35632814408287,4.971431579884291 L 94.02710788538748,6.5235714448419255 L 88.1829281486386,11.728911318911036 L 87.40009957525757,8.832848573613859 A 108.00506814872362 108.00506814872362 0 0 1 87.04638553348576,8.927817024617212"/><text text-anchor="middle" pointer-events="none" font-size="8px" fill="#000000" x="59.33517079725407" y="15.074700328681502" transform="rotate(180 59.33517079725407 12.074700328681502)" font-family="sans-serif">Sota la llum…</text></g><g class="relationship" transform="translate(-42.71288340803763 -58.76369001820217) rotate(342.8097441930935)"><path class="outline" fill="#6DCE9E" stroke="none" d="M 31.26317983184346,8.894581878976458 L 31.52199887694598,7.92865605268739 A 103.95412470710875 103.95412470710875 0 0 0 33.25093211301166,8.37604092741897 L 33.00874476233143,9.346270429738126 A 104.95412470710875 104.95412470710875 0 0 1 31.26317983184346,8.894581878976458 Z M 84.072820227643,9.289350002283314 L 83.82847047834919,8.319662836224055 A 103.95412470710875 103.95412470710875 0 0 0 85.55640203155335,7.868424641527985 L 84.77348660785424,4.972385373953379 L 92.44431289317727,6.524295197492513 L 86.60028926315215,11.729810331627458 L 85.81737383945304,8.833771064052852 A 104.95412470710875 104.95412470710875 0 0 1 84.072820227643,9.289350002283314"/><text text-anchor="middle" pointer-events="none" font-size="8px" fill="#000000" x="58.54373968188106" y="14.97074206252168" font-family="sans-serif">Friday Im i…</text></g><g class="relationship" transform="translate(-42.71288340803763 -58.76369001820217) rotate(342.8097441930935)"><path class="outline" fill="#FFD86E" stroke="none" d="M 31.26317983184346,-8.894581878976458 L 31.52199887694598,-7.92865605268739 A 103.95412470710875 103.95412470710875 0 0 1 32.46339932609092,-8.17618545204202 L 32.21363620302899,-9.144492419051119 A 104.95412470710875 104.95412470710875 0 0 0 31.26317983184346,-8.894581878976458 Z M 84.8674769732363,-9.085799901924972 L 84.6155557564293,-8.118052155597198 A 103.95412470710875 103.95412470710875 0 0 1 85.55640203155335,-7.868424641527985 L 84.77348660785424,-4.972385373953379 L 92.44431289317727,-6.524295197492513 L 86.60028926315215,-11.729810331627458 L 85.81737383945304,-8.833771064052852 A 104.95412470710875 104.95412470710875 0 0 0 84.8674769732363,-9.085799901924972"/><text text-anchor="middle" pointer-events="none" font-size="8px" fill="#000000" x="58.54373968188106" y="-8.97074206252168" font-family="sans-serif">INSTAGRAM</text></g></g><g class="layer nodes"><g class="node" transform="translate(171.13088218199528,106.59109707501146)"><circle class="outline" cx="0" cy="0" r="25" fill="#68BDF6" stroke="#5CA8DB" stroke-width="2px"/><text text-anchor="middle" pointer-events="none" y="0" font-size="10px" fill="#FFFFFF" font-family="sans-serif"> Posts in</text><text text-anchor="middle" pointer-events="none" y="10" font-size="10px" fill="#FFFFFF" font-family="sans-serif"> Bham</text></g><g class="node" transform="translate(156.5102446543049,-14.199506508199025)"><circle class="outline" cx="0" cy="0" r="32.5" fill="#FF756E" stroke="#E06760" stroke-width="2px"/><text text-anchor="middle" pointer-events="none" y="5" font-size="10px" fill="#FFFFFF" font-family="sans-serif"> Els Catarres</text></g><g class="node" transform="translate(50.41117322826416,85.92065331051634)"><circle class="outline" cx="0" cy="0" r="32.5" fill="#FF756E" stroke="#E06760" stroke-width="2px"/><text text-anchor="middle" pointer-events="none" y="0" font-size="10px" fill="#FFFFFF" font-family="sans-serif"> Wanda</text><text text-anchor="middle" pointer-events="none" y="10" font-size="10px" fill="#FFFFFF" font-family="sans-serif"> Jackson</text></g><g class="node" transform="translate(59.085535727052616,169.95866667451662)"><circle class="outline" cx="0" cy="0" r="32.5" fill="#FF756E" stroke="#E06760" stroke-width="2px"/><text text-anchor="middle" pointer-events="none" y="5" font-size="10px" fill="#FFFFFF" font-family="sans-serif"> Bob Dylan</text></g><g class="node" transform="translate(116.0849676567035,221.10149082792418)"><circle class="outline" cx="0" cy="0" r="32.5" fill="#FF756E" stroke="#E06760" stroke-width="2px"/><text text-anchor="middle" pointer-events="none" y="5" font-size="10px" fill="#FFFFFF" font-family="sans-serif"> Journey</text></g><g class="node" transform="translate(238.84150991756087,205.4421373175141)"><circle class="outline" cx="0" cy="0" r="32.5" fill="#FF756E" stroke="#E06760" stroke-width="2px"/><text text-anchor="middle" pointer-events="none" y="0" font-size="10px" fill="#FFFFFF" font-family="sans-serif"> Noah and</text><text text-anchor="middle" pointer-events="none" y="10" font-size="10px" fill="#FFFFFF" font-family="sans-serif"> the Whale</text></g><g class="node" transform="translate(282.84734888111507,69.40797796678713)"><circle class="outline" cx="0" cy="0" r="32.5" fill="#FF756E" stroke="#E06760" stroke-width="2px"/><text text-anchor="middle" pointer-events="none" y="5" font-size="10px" fill="#FFFFFF" font-family="sans-serif"> Projecte Mut</text></g><g class="node" transform="translate(68.65739329485588,-93.21779517707229)"><circle class="outline" cx="0" cy="0" r="25" fill="#68BDF6" stroke="#5CA8DB" stroke-width="2px"/><text text-anchor="middle" pointer-events="none" y="0" font-size="10px" fill="#FFFFFF" font-family="sans-serif"> Posts in</text><text text-anchor="middle" pointer-events="none" y="10" font-size="10px" fill="#FFFFFF" font-family="sans-serif"> Girona</text></g><g class="node" transform="translate(-42.71288340803763,-58.76369001820217)"><circle class="outline" cx="0" cy="0" r="32.5" fill="#FF756E" stroke="#E06760" stroke-width="2px"/><text text-anchor="middle" pointer-events="none" y="5" font-size="10px" fill="#FFFFFF" font-family="sans-serif"> JanetDevlin</text></g></g></svg>